<svg xmlns="http://www.w3.org/2000/svg" viewBox="0 0 70.726 70.726">
    <g xmlns="http://www.w3.org/2000/svg">
        <path style="fill:#FFDD00;" d="M38.991,41.473c1.794,1.171,2.982,3.192,2.982,5.495c0,4.086-3.735,7.299-7.977,6.412   c-2.47-0.517-4.469-2.51-4.992-4.979c-0.61-2.879,0.671-5.519,2.83-6.928v-5.725H20.273v23.199c0,2.14,1.735,3.874,3.874,3.874   h22.715c2.14,0,3.874-1.735,3.874-3.874V35.748H38.991V41.473z"/>
        <path style="fill:#231F20;" d="M44.692,70.726H26.316c-2.379,0-4.314-1.936-4.314-4.314v-3.59c0-1.021,0.828-1.849,1.849-1.849   h23.307c1.021,0,1.849,0.828,1.849,1.849v3.59C49.007,68.79,47.071,70.726,44.692,70.726z M25.7,64.67v1.741   c0,0.34,0.277,0.616,0.616,0.616h18.376c0.339,0,0.616-0.276,0.616-0.616V64.67H25.7z"/>
        <path style="fill:#231F20;" d="M55.663,57.513h-4.927c-1.021,0-1.849-0.828-1.849-1.849V33.826c0-1.021,0.828-1.849,1.849-1.849   h4.927c3.059,0,5.547,2.488,5.547,5.547v14.441C61.21,55.025,58.721,57.513,55.663,57.513z M52.585,53.815h3.078   c1.02,0,1.849-0.829,1.849-1.849V37.524c0-1.02-0.829-1.849-1.849-1.849h-3.078V53.815z"/>
        <path style="fill:#231F20;" d="M47.432,64.67H23.577c-2.841,0-5.152-2.311-5.152-5.152V26.302c0-1.021,0.828-1.849,1.849-1.849   h11.561c1.021,0,1.849,0.828,1.849,1.849v15.171c0,0.625-0.315,1.207-0.839,1.549c-1.342,0.876-2.144,2.351-2.144,3.946   c0,2.598,2.114,4.711,4.712,4.711c2.598,0,4.712-2.113,4.712-4.711c0-1.595-0.802-3.07-2.144-3.946   c-0.522-0.342-0.838-0.924-0.838-1.549V26.302c0-1.021,0.828-1.849,1.849-1.849h11.744c1.021,0,1.849,0.828,1.849,1.849v33.216   C52.585,62.359,50.273,64.67,47.432,64.67z M22.122,28.151v31.367c0,0.802,0.653,1.454,1.454,1.454h23.856   c0.802,0,1.454-0.652,1.454-1.454V28.151H40.84v12.397c1.884,1.589,2.982,3.921,2.982,6.42c0,4.637-3.773,8.409-8.41,8.409   c-4.637,0-8.41-3.772-8.41-8.409c0-2.499,1.099-4.831,2.983-6.42V28.151H22.122z"/>
        <path style="fill:#231F20;" d="M35.401,55.375c-0.591,0-1.188-0.061-1.783-0.185c-3.17-0.663-5.75-3.236-6.423-6.405   c-0.66-3.117,0.426-6.244,2.79-8.237V28.151h-7.863v4.757c0,2.929-2.384,5.313-5.313,5.313c-2.929,0-5.312-2.383-5.312-5.313   v-9.287c-2.363-3.315-2.637-7.69-0.684-11.586c1.553-3.095,4.661-5.118,8.152-5.405c1.185-2.635,3.851-4.428,6.814-4.428   c1.201,0,2.386,0.302,3.452,0.867C31.717,1.08,34.78,0,38.005,0c6.286,0,11.789,4.2,13.515,10.143   c4.069,1.269,6.83,5.277,6.44,9.636c-0.42,4.694-4.564,8.372-9.433,8.372H40.84v12.397c1.884,1.589,2.982,3.921,2.982,6.42   c0,2.544-1.133,4.924-3.108,6.529C39.202,54.725,37.331,55.375,35.401,55.375z M20.273,24.453h11.561   c1.021,0,1.849,0.828,1.849,1.849v15.171c0,0.625-0.315,1.207-0.838,1.548c-1.65,1.077-2.447,3.038-2.032,4.997   c0.372,1.757,1.803,3.184,3.561,3.552c1.464,0.305,2.883-0.029,4.006-0.943c1.107-0.9,1.743-2.234,1.743-3.659   c0-1.595-0.802-3.07-2.144-3.946c-0.522-0.342-0.838-0.924-0.838-1.549V26.302c0-1.021,0.828-1.849,1.849-1.849h9.537   c2.973,0,5.499-2.198,5.749-5.004c0.256-2.868-1.757-5.48-4.586-5.948c-0.76-0.126-1.361-0.709-1.511-1.464   c-0.962-4.832-5.24-8.339-10.174-8.339c-2.756,0-5.352,1.071-7.311,3.014c-0.68,0.676-1.766,0.719-2.498,0.099   C27.707,6.396,26.889,5.9,25.778,5.9c-1.75,0-3.296,1.243-3.675,2.956c-0.195,0.881-0.999,1.497-1.898,1.447   c-2.61-0.132-4.986,1.198-6.086,3.391c-1.423,2.837-1.175,5.879,0.662,8.139c0.267,0.33,0.414,0.741,0.414,1.167v9.909   c0,0.89,0.725,1.615,1.614,1.615c0.891,0,1.615-0.725,1.615-1.615v-6.606C18.424,25.28,19.253,24.453,20.273,24.453z"/>
        <path style="fill:#231F20;" d="M30.454,36.36h-1.233c-0.332,0-0.616-0.271-0.616-0.616c0-0.333,0.284-0.616,0.616-0.616h1.233   c0.346,0,0.616,0.284,0.616,0.616C31.07,36.088,30.799,36.36,30.454,36.36z M26.756,36.36c-0.332,0-0.616-0.271-0.616-0.616   c0-0.333,0.284-0.616,0.616-0.616c0.345,0,0.616,0.284,0.616,0.616C27.372,36.088,27.101,36.36,26.756,36.36z M23.058,36.36h-1.233   c-0.332,0-0.616-0.271-0.616-0.616c0-0.333,0.284-0.616,0.616-0.616h1.233c0.345,0,0.616,0.284,0.616,0.616   C23.674,36.088,23.403,36.36,23.058,36.36z"/>
        <path style="fill:#231F20;" d="M49.363,36.36H48.13c-0.344,0-0.616-0.271-0.616-0.616c0-0.333,0.272-0.616,0.616-0.616h1.233   c0.333,0,0.616,0.284,0.616,0.616C49.979,36.088,49.697,36.36,49.363,36.36z M45.665,36.36c-0.344,0-0.616-0.271-0.616-0.616   c0-0.333,0.272-0.616,0.616-0.616c0.333,0,0.616,0.284,0.616,0.616C46.281,36.088,45.999,36.36,45.665,36.36z M41.967,36.36h-1.233   c-0.344,0-0.616-0.271-0.616-0.616c0-0.333,0.272-0.616,0.616-0.616h1.233c0.333,0,0.616,0.284,0.616,0.616   C42.583,36.088,42.3,36.36,41.967,36.36z"/>
    </g>
</svg>
